<svg xmlns="http://www.w3.org/2000/svg" width="671.851" height="742.34" viewBox="0 0 671.851 742.34">
  <g id="bakterie_4" data-name="bakterie 4" transform="translate(-219.644 -156.291)">
    <g id="Group_77" data-name="Group 77" transform="translate(-1289.855 -274.183)" opacity="0.51">
      <path id="Path_212" data-name="Path 212" d="M1589.211,842.172a28.366,28.366,0,0,0-3.691-13.971,162.458,162.458,0,0,1-19.074-52.939v-.012l0-.025a28.256,28.256,0,0,0-8.928-16.046h0a24.271,24.271,0,0,0-16.093-6.375h-.174a18.7,18.7,0,0,0-14.371,7.179,26.624,26.624,0,0,0-6.02,17.35,35.107,35.107,0,0,0,.508,5.844,205.538,205.538,0,0,0,24.467,67.912c4.419,7.737,11.38,12.889,19,14.28a22.109,22.109,0,0,0,3.96.369,18.008,18.008,0,0,0,11.647-4.073l.015-.012A25.053,25.053,0,0,0,1589.211,842.172Zm-9.424,18.554h0c-.018.015-.031.033-.049.046h0v0h0a17.017,17.017,0,0,1-10.952,3.816h-.02a20.577,20.577,0,0,1-3.731-.346c-7.473-1.372-14.071-6.443-18.233-13.734a207.415,207.415,0,0,1-24.336-67.544,31.593,31.593,0,0,1-.471-5.376h0l0-.064a26.1,26.1,0,0,1,5.743-16.811,17.743,17.743,0,0,1,13.528-6.77h.152a23.189,23.189,0,0,1,15.506,6.194,27.1,27.1,0,0,1,8.414,15.262h0l.006.028h0v.009h0l0,.013-.082.015.083-.006v0a163.457,163.457,0,0,0,19.2,53.295l.01.018a27.256,27.256,0,0,1,3.552,13.42v.04h0A23.863,23.863,0,0,1,1579.787,860.726Z" transform="translate(-11.356 86.805)" fill="#ef7d00"/>
      <path id="Path_213" data-name="Path 213" d="M1874.262,836.813a11.713,11.713,0,0,0,8.231,14.364,83.649,83.649,0,0,0,102.415-59.6,12.158,12.158,0,0,0,.4-3.067,11.608,11.608,0,0,0-22.841-3.021,60.407,60.407,0,0,1-28.147,36.924,59.573,59.573,0,0,1-45.82,6.1,11.474,11.474,0,0,0-2.987-.4,11.687,11.687,0,0,0-11.239,8.659l-.006.027Zm.682,3.048h0v-.031a10.919,10.919,0,0,1,.345-2.675h0l.008-.04.007-.024a10.534,10.534,0,0,1,12.925-7.486,61.48,61.48,0,0,0,75.274-43.821,10.585,10.585,0,0,1,10.2-7.859,10.359,10.359,0,0,1,2.728.364,10.612,10.612,0,0,1,7.776,10.158l.01.046v.115h0a10.791,10.791,0,0,1-.333,2.638l0,.013,0,.016,0,.015h0a82.569,82.569,0,0,1-37.839,50.063l.01.016-.643.373,0,0-.639.371-.006-.01a81.429,81.429,0,0,1-61.988,7.98,10.68,10.68,0,0,1-5.417-3.572,10.487,10.487,0,0,1-2.4-6.639h0Z" transform="translate(57 318.74)" fill="#ef7d00"/>
      <path id="Path_214" data-name="Path 214" d="M1631.569,609.52a29.169,29.169,0,0,1,9.25,1.488,11.666,11.666,0,0,0,8.967-.641,11.322,11.322,0,0,0,5.859-6.714,12.7,12.7,0,0,0,.6-3.809,11.422,11.422,0,0,0-2.433-7.041,11.764,11.764,0,0,0-5.555-3.985,54.43,54.43,0,0,0-16.788-2.672,59.307,59.307,0,0,0-25.648,6.076,73.787,73.787,0,0,0-19.962,14.187,11.713,11.713,0,0,0,16.592,16.536l.526-.525.019.019a50.19,50.19,0,0,1,12.317-8.813h0A36.525,36.525,0,0,1,1631.569,609.52Zm-16.538,3.015a51.522,51.522,0,0,0-13.378,9.628h0a10.589,10.589,0,0,1-7.439,3.089h0l-.03,0h-.043a10.575,10.575,0,0,1-6.929-2.593l-.027.025-.526-.523v0l-.525-.524.027-.027a10.531,10.531,0,0,1-2.6-6.9h0v-.018h0v-.019h0v-.006a10.544,10.544,0,0,1,3.1-7.474,72.72,72.72,0,0,1,19.615-13.915,58.636,58.636,0,0,1,25.328-6.045h.028a51.247,51.247,0,0,1,15.274,2.337l1.121.364a14.984,14.984,0,0,1,2.774,1.386l.212.123a10.321,10.321,0,0,1,4.1,8.6c0,.256-.042.513-.061.77l-.116.979-.343,1.47h0l-.947,1.978-.5.856a10.582,10.582,0,0,1-3.8,3.248l-.03.021-.042.021a10.6,10.6,0,0,1-4.678,1.11v0h-.051a10.736,10.736,0,0,1-3.364-.544,30.122,30.122,0,0,0-9.584-1.547A37.673,37.673,0,0,0,1615.031,612.535Z" transform="translate(-38.391 53.449)" fill="#ef7d00"/>
      <path id="Path_215" data-name="Path 215" d="M1809.693,518.23a33.068,33.068,0,0,1,33.035,33.035,11.773,11.773,0,0,0,23.547,0,56.648,56.648,0,0,0-56.582-56.582,11.773,11.773,0,0,0,0,23.547Zm0-22.4v0a55.5,55.5,0,0,1,55.437,55.439,10.63,10.63,0,1,1-21.26,0,34.22,34.22,0,0,0-34.179-34.177,10.631,10.631,0,0,1,0-21.261Z" transform="translate(163.58 -5)" fill="#ef7d00"/>
    </g>
    <path id="Path_255" data-name="Path 255" d="M1680.275,730.648a10.284,10.284,0,0,0-1.339-5.067,58.936,58.936,0,0,1-6.917-19.2v0l0-.009a10.246,10.246,0,0,0-3.239-5.82h0a8.8,8.8,0,0,0-5.837-2.312h-.063a6.786,6.786,0,0,0-5.212,2.6,9.656,9.656,0,0,0-2.183,6.293,12.741,12.741,0,0,0,.184,2.12,74.549,74.549,0,0,0,8.873,24.631,10.224,10.224,0,0,0,6.893,5.179,8.063,8.063,0,0,0,1.436.134,6.531,6.531,0,0,0,4.224-1.477l.005,0A9.086,9.086,0,0,0,1680.275,730.648Z" transform="translate(2555.824 -221.913) rotate(135)" fill="#ef7d00"/>
    <path id="Path_256" data-name="Path 256" d="M1543.395,782.272a9.353,9.353,0,0,0-1.217-4.607,53.571,53.571,0,0,1-6.289-17.456v0l0-.008a9.316,9.316,0,0,0-2.944-5.291h0a8,8,0,0,0-5.306-2.1h-.057a6.166,6.166,0,0,0-4.739,2.367,8.779,8.779,0,0,0-1.985,5.721,11.578,11.578,0,0,0,.168,1.927,67.776,67.776,0,0,0,8.068,22.393,9.3,9.3,0,0,0,6.266,4.709,7.283,7.283,0,0,0,1.306.121,5.939,5.939,0,0,0,3.841-1.343l.005,0A8.261,8.261,0,0,0,1543.395,782.272Zm-3.107,6.118h0c-.006,0-.01.011-.016.015h0a5.611,5.611,0,0,1-3.611,1.258h-.006a6.78,6.78,0,0,1-1.23-.114,8.931,8.931,0,0,1-6.012-4.528,68.389,68.389,0,0,1-8.024-22.272,10.413,10.413,0,0,1-.155-1.773h0v-.021a8.606,8.606,0,0,1,1.894-5.543,5.85,5.85,0,0,1,4.461-2.232h.05a7.646,7.646,0,0,1,5.113,2.042,8.937,8.937,0,0,1,2.775,5.033h0l0,.009h0v0h0v0l-.027,0,.028,0h0a53.9,53.9,0,0,0,6.329,17.573l0,.006a8.987,8.987,0,0,1,1.171,4.425v.013h0A7.868,7.868,0,0,1,1540.287,788.39Z" transform="matrix(0.574, 0.819, -0.819, 0.574, 165.406, -1521.102)" fill="#ef7d00" stroke="#ef7d00" stroke-width="0.3" opacity="0.51"/>
    <path id="Path_254" data-name="Path 254" d="M1657.2,644.837a30.526,30.526,0,0,1,9.676,1.556,12.187,12.187,0,0,0,9.376-.668,11.849,11.849,0,0,0,6.128-7.023,13.282,13.282,0,0,0,.631-3.982,11.962,11.962,0,0,0-2.546-7.365,12.306,12.306,0,0,0-5.808-4.167,56.849,56.849,0,0,0-17.561-2.794,62.023,62.023,0,0,0-26.824,6.354,77.218,77.218,0,0,0-20.881,14.838,12.25,12.25,0,0,0,17.354,17.3l.55-.549.02.02a52.571,52.571,0,0,1,12.884-9.218h0A38.221,38.221,0,0,1,1657.2,644.837Z" transform="translate(-1354.808 -254.959)" fill="#ef7d00"/>
  </g>
</svg>
