<svg xmlns="http://www.w3.org/2000/svg" width="132.145" height="130.909" viewBox="0 0 132.145 130.909">
  <g id="napisy_wygodne_saszetki_en" data-name="napisy wygodne saszetki en" transform="translate(-759.936 -319.139)">
    <path id="Path_392" data-name="Path 392" d="M767.1,406.683a3.27,3.27,0,0,1-1.088.166,3.008,3.008,0,0,1-1.1-.22,2.869,2.869,0,0,1-.946-.636,2.739,2.739,0,0,1-.64-1.067,2.529,2.529,0,0,1-.1-1.43,2.271,2.271,0,0,1,.626-1.118l.563.446a1.787,1.787,0,0,0-.353.466,1.7,1.7,0,0,0-.165.5,1.809,1.809,0,0,0-.012.492,2.267,2.267,0,0,0,.1.46,1.837,1.837,0,0,0,.483.774,2.041,2.041,0,0,0,.723.442,2.347,2.347,0,0,0,.844.131,2.764,2.764,0,0,0,.844-.147,2.64,2.64,0,0,0,.806-.437,2.489,2.489,0,0,0,.581-.66,2.139,2.139,0,0,0,.286-.8,1.808,1.808,0,0,0-.082-.852,2.161,2.161,0,0,0-.213-.443,1.841,1.841,0,0,0-.335-.394,2.078,2.078,0,0,0-.452-.3,1.614,1.614,0,0,0-.559-.156l.124-.716a1.907,1.907,0,0,1,.7.19,2.575,2.575,0,0,1,.6.416,2.869,2.869,0,0,1,.478.568,2.776,2.776,0,0,1,.319.647,2.409,2.409,0,0,1,.108,1.166,3.027,3.027,0,0,1-.385,1.077,3.254,3.254,0,0,1-.754.875A3.212,3.212,0,0,1,767.1,406.683Z"/>
    <path id="Path_393" data-name="Path 393" d="M767.423,396.8a2.546,2.546,0,0,1-.008,1.188,2.876,2.876,0,0,1-.482,1.023,3.151,3.151,0,0,1-.836.772,3.255,3.255,0,0,1-1.062.44,3.2,3.2,0,0,1-2.259-.346,2.873,2.873,0,0,1-.851-.741,2.574,2.574,0,0,1-.486-1.055,2.47,2.47,0,0,1,.017-1.186,2.969,2.969,0,0,1,.495-1.022,3.218,3.218,0,0,1,.837-.773,3.174,3.174,0,0,1,1.05-.437,3.2,3.2,0,0,1,2.252.343,2.824,2.824,0,0,1,.847.737A2.577,2.577,0,0,1,767.423,396.8Zm-2.553,2.667a2.714,2.714,0,0,0,.838-.334,2.457,2.457,0,0,0,.653-.572,2.022,2.022,0,0,0,.376-.751,1.824,1.824,0,0,0,.012-.873,1.781,1.781,0,0,0-.388-.8,2.135,2.135,0,0,0-.67-.522,2.439,2.439,0,0,0-.829-.236,2.749,2.749,0,0,0-.87.045,2.712,2.712,0,0,0-.836.334,2.339,2.339,0,0,0-.648.576,2.126,2.126,0,0,0-.373.751,1.922,1.922,0,0,0,.37,1.663,2.065,2.065,0,0,0,.662.522,2.422,2.422,0,0,0,.825.243A2.718,2.718,0,0,0,764.87,399.467Z"/>
    <path id="Path_394" data-name="Path 394" d="M761.869,391.979l4.585-.437.072.762-6.007.572-.057-.592,4.323-4.17-4.67.446-.073-.762,6-.572.062.643Z"/>
    <path id="Path_395" data-name="Path 395" d="M759.949,384.816l5.108-1.91-5.04-2.076.014-.807,5.992,2.567-.012.664-6.076,2.37Z"/>
    <path id="Path_396" data-name="Path 396" d="M766.028,374.472l.676.081-.488,4.068-5.991-.717.477-3.993.677.081-.389,3.232,1.941.232.337-2.809.634.075-.337,2.811,2.067.248Z"/>
    <path id="Path_397" data-name="Path 397" d="M762.682,371.02l4.486,1.046-.174.745-5.878-1.372.136-.579,5.428-2.575-4.569-1.066.174-.745,5.868,1.369-.146.629Z"/>
    <rect id="Rectangle_905" data-name="Rectangle 905" width="0.765" height="6.035" transform="matrix(0.31, -0.951, 0.951, 0.31, 763.085, 363.917)"/>
    <path id="Path_398" data-name="Path 398" d="M770.7,358.919l.629.258-1.555,3.792-5.584-2.291,1.525-3.721.63.259-1.235,3.012,1.808.742,1.075-2.619.59.243-1.074,2.618,1.927.79Z"/>
    <path id="Path_399" data-name="Path 399" d="M768.379,354.719l4.046,2.2-.365.672-5.3-2.886.285-.522,5.916-1.038-4.121-2.244.366-.672,5.292,2.882-.309.568Z"/>
    <path id="Path_400" data-name="Path 400" d="M773.741,344.685l-1.189,1.71,4.4,3.058-.437.628-4.4-3.059-1.189,1.709-.559-.388,2.815-4.047Z"/>
    <path id="Path_401" data-name="Path 401" d="M779.783,338.6a1.254,1.254,0,0,0-.352.042,2.526,2.526,0,0,0-.408.143,2.779,2.779,0,0,0-.421.24,2.466,2.466,0,0,0-.4.346,1.637,1.637,0,0,0-.512.935.879.879,0,0,0,.306.732.793.793,0,0,0,.361.209.754.754,0,0,0,.4-.026,2.285,2.285,0,0,0,.486-.226c.176-.107.379-.239.61-.394a7.276,7.276,0,0,1,.748-.46,2.515,2.515,0,0,1,.68-.25,1.318,1.318,0,0,1,.626.027,1.547,1.547,0,0,1,.6.366,1.592,1.592,0,0,1,.433.638,1.51,1.51,0,0,1,.07.7,2.051,2.051,0,0,1-.248.715,3.605,3.605,0,0,1-.521.7,3.981,3.981,0,0,1-1.06.819,3.708,3.708,0,0,1-1.236.4l-.224-.707a2.06,2.06,0,0,0,.452-.062,2.833,2.833,0,0,0,.526-.184,3.534,3.534,0,0,0,.542-.307,2.97,2.97,0,0,0,.508-.438,1.847,1.847,0,0,0,.517-.891.849.849,0,0,0-.652-.939.961.961,0,0,0-.45.039,2.556,2.556,0,0,0-.539.248q-.294.172-.653.408a7.673,7.673,0,0,1-.725.429,2.228,2.228,0,0,1-.621.216,1.165,1.165,0,0,1-.558-.037,1.425,1.425,0,0,1-.528-.331,1.7,1.7,0,0,1-.449-.639,1.6,1.6,0,0,1-.1-.713,1.969,1.969,0,0,1,.218-.738,3.344,3.344,0,0,1,1.4-1.394,3.1,3.1,0,0,1,.964-.3Z"/>
    <path id="Path_402" data-name="Path 402" d="M782.25,334.543l.485-.425,5.833,2.911-.614.537-1.7-.857-1.9,1.669.635,1.8-.614.538Zm3.482,1.831-2.656-1.379.994,2.836Z"/>
    <path id="Path_403" data-name="Path 403" d="M787.522,333.975a3.22,3.22,0,0,1-.468-.995,3,3,0,0,1-.1-1.114,2.809,2.809,0,0,1,.339-1.089,2.718,2.718,0,0,1,.84-.918,2.541,2.541,0,0,1,1.342-.5,2.29,2.29,0,0,1,1.251.281l-.267.669a1.748,1.748,0,0,0-.547-.207,1.666,1.666,0,0,0-.521-.016,1.768,1.768,0,0,0-.477.129,2.3,2.3,0,0,0-.411.228,1.835,1.835,0,0,0-.6.684,2.053,2.053,0,0,0-.217.819,2.359,2.359,0,0,0,.114.846,2.833,2.833,0,0,0,.381.767,2.585,2.585,0,0,0,.652.647,2.452,2.452,0,0,0,.8.368,2.115,2.115,0,0,0,.845.048,1.808,1.808,0,0,0,.793-.322,2.085,2.085,0,0,0,.365-.331,1.836,1.836,0,0,0,.281-.434,2.011,2.011,0,0,0,.159-.519,1.643,1.643,0,0,0-.009-.58l.72-.084a1.887,1.887,0,0,1,.017.722,2.555,2.555,0,0,1-.226.7,2.963,2.963,0,0,1-.409.623,2.914,2.914,0,0,1-.528.489,2.415,2.415,0,0,1-1.087.436,3.024,3.024,0,0,1-1.142-.062,3.3,3.3,0,0,1-1.88-1.279Z"/>
    <path id="Path_404" data-name="Path 404" d="M796.294,324.963l2.913,5.285-.671.37-1.325-2.4-2.911,1.6,1.326,2.4-.67.37-2.914-5.285.671-.37,1.259,2.285,2.911-1.6-1.261-2.285Z"/>
    <path id="Path_405" data-name="Path 405" d="M804.681,327.13l.263.628-3.779,1.58-2.329-5.568,3.71-1.55.262.627-3,1.256.753,1.8,2.612-1.093.245.588-2.611,1.091.8,1.921Z"/>
    <path id="Path_406" data-name="Path 406" d="M809.2,320.782l-1.991.609,1.566,5.121-.73.223-1.567-5.12-1.992.61-.2-.65L809,320.131Z"/>
    <path id="Path_407" data-name="Path 407" d="M814.836,320.174a1.271,1.271,0,0,0-.313-.173,2.539,2.539,0,0,0-.413-.12,2.712,2.712,0,0,0-.482-.05,2.363,2.363,0,0,0-.524.049,1.633,1.633,0,0,0-.96.461.87.87,0,0,0-.179.773.809.809,0,0,0,.172.382.761.761,0,0,0,.342.212,2.191,2.191,0,0,0,.527.1q.308.024.726.035a7.3,7.3,0,0,1,.874.064,2.45,2.45,0,0,1,.7.193,1.349,1.349,0,0,1,.494.386,1.56,1.56,0,0,1,.272.648,1.587,1.587,0,0,1-.018.77,1.518,1.518,0,0,1-.352.608,1.963,1.963,0,0,1-.619.437,3.606,3.606,0,0,1-.83.267,4.032,4.032,0,0,1-1.338.048,3.707,3.707,0,0,1-1.238-.4l.231-.705a1.986,1.986,0,0,0,.4.214,2.919,2.919,0,0,0,.534.158,3.761,3.761,0,0,0,.619.066,3.019,3.019,0,0,0,.669-.061,1.847,1.847,0,0,0,.938-.422.762.762,0,0,0,.214-.746.754.754,0,0,0-.2-.4.983.983,0,0,0-.39-.231,2.583,2.583,0,0,0-.581-.112q-.339-.031-.768-.05a7.575,7.575,0,0,1-.838-.074,2.19,2.19,0,0,1-.632-.186,1.154,1.154,0,0,1-.431-.355,1.442,1.442,0,0,1-.237-.576,1.73,1.73,0,0,1,.008-.783,1.6,1.6,0,0,1,.332-.639,1.957,1.957,0,0,1,.606-.472,3.143,3.143,0,0,1,.828-.284,3.03,3.03,0,0,1,2.076.286Z"/>
    <path id="Path_408" data-name="Path 408" d="M835.833,321.646a3.26,3.26,0,0,1,.4-1.025,3.033,3.033,0,0,1,.741-.841,2.786,2.786,0,0,1,1.022-.5,2.72,2.72,0,0,1,1.244-.022,2.54,2.54,0,0,1,1.287.628,2.284,2.284,0,0,1,.657,1.1l-.668.266a1.679,1.679,0,0,0-.575-.928,1.763,1.763,0,0,0-.42-.257,2.185,2.185,0,0,0-.45-.141,1.819,1.819,0,0,0-.911.032,2.052,2.052,0,0,0-.744.406,2.381,2.381,0,0,0-.535.665,2.789,2.789,0,0,0-.293.8,2.583,2.583,0,0,0-.023.918,2.482,2.482,0,0,0,.281.831,2.123,2.123,0,0,0,.548.647,1.809,1.809,0,0,0,.779.354,2.119,2.119,0,0,0,.49.037,1.789,1.789,0,0,0,.509-.1,2.047,2.047,0,0,0,.485-.24,1.606,1.606,0,0,0,.415-.408l.558.466a1.9,1.9,0,0,1-.514.51,2.579,2.579,0,0,1-.659.314,3.017,3.017,0,0,1-.733.132,2.822,2.822,0,0,1-.719-.048,2.424,2.424,0,0,1-1.064-.488,3.059,3.059,0,0,1-.741-.871,3.3,3.3,0,0,1-.365-2.244Z"/>
    <path id="Path_409" data-name="Path 409" d="M844.22,326.859a2.562,2.562,0,0,1-1.027-.6,2.8,2.8,0,0,1-.644-.928,3.082,3.082,0,0,1-.254-1.11,3.256,3.256,0,0,1,.149-1.139,3.149,3.149,0,0,1,.558-1.036,3.191,3.191,0,0,1,.868-.75,2.882,2.882,0,0,1,1.067-.367,2.6,2.6,0,0,1,1.158.1,2.47,2.47,0,0,1,1.02.607,2.932,2.932,0,0,1,.637.939,3.216,3.216,0,0,1,.253,1.11,3.155,3.155,0,0,1-.146,1.127,3.119,3.119,0,0,1-.557,1.036,3.168,3.168,0,0,1-.863.747,2.842,2.842,0,0,1-1.062.365A2.591,2.591,0,0,1,844.22,326.859Zm-1.038-3.543a2.654,2.654,0,0,0-.128.892,2.435,2.435,0,0,0,.17.852,1.994,1.994,0,0,0,.463.7,1.834,1.834,0,0,0,.75.444,1.759,1.759,0,0,0,.889.065,2.1,2.1,0,0,0,.784-.321,2.358,2.358,0,0,0,.62-.6,2.666,2.666,0,0,0,.4-.775,2.706,2.706,0,0,0,.129-.891,2.372,2.372,0,0,0-.176-.85,2.09,2.09,0,0,0-.465-.7,1.775,1.775,0,0,0-.738-.442,1.828,1.828,0,0,0-.888-.069,2.1,2.1,0,0,0-.781.313,2.465,2.465,0,0,0-.624.6A2.645,2.645,0,0,0,843.182,323.316Z"/>
    <path id="Path_410" data-name="Path 410" d="M851.2,324.463l-1.914,4.19-.7-.317,2.508-5.49.541.247,1.448,5.83,1.95-4.268.7.318-2.5,5.481-.588-.269Z"/>
    <path id="Path_411" data-name="Path 411" d="M858.379,326.4l-.913,5.376,4.326-3.316.691.417-5.229,3.894-.568-.343,1-6.444Z"/>
    <path id="Path_412" data-name="Path 412" d="M864.273,336.852l-.408.543-3.273-2.463,3.63-4.821,3.213,2.417-.409.544-2.6-1.958-1.177,1.562,2.263,1.7-.385.51-2.261-1.7-1.253,1.664Z"/>
    <path id="Path_413" data-name="Path 413" d="M868.928,335.677l-3.153,3.358-.559-.523,4.131-4.4.433.408-.489,5.986,3.211-3.42.559.523L868.935,342l-.472-.442Z"/>
    <path id="Path_414" data-name="Path 414" d="M870.392,343.623l4.486-4.035.513.569-4.489,4.035Z"/>
    <path id="Path_415" data-name="Path 415" d="M875.391,348.654l-.538.417-2.509-3.239,4.77-3.7,2.463,3.178-.537.416-1.994-2.573-1.546,1.2,1.733,2.237-.5.39L875,344.746l-1.647,1.275Z"/>
    <path id="Path_416" data-name="Path 416" d="M880.18,348.732l-3.926,2.409-.4-.651L881,347.333l.312.507-2.05,5.646,4-2.454.4.652-5.139,3.152-.337-.55Z"/>
    <path id="Path_417" data-name="Path 417" d="M886.213,358.408l-.888-1.884-4.845,2.281-.325-.692L885,355.832l-.887-1.883.615-.29,2.1,4.46Z"/>
    <path id="Path_418" data-name="Path 418" d="M888.457,366.686a1.267,1.267,0,0,0,.142-.326,2.762,2.762,0,0,0,.079-.425,2.908,2.908,0,0,0,0-.486,2.5,2.5,0,0,0-.1-.515,1.651,1.651,0,0,0-.554-.912.883.883,0,0,0-.787-.1.81.81,0,0,0-.363.209.76.76,0,0,0-.179.361,2.284,2.284,0,0,0-.046.534q.006.309.035.727a7.182,7.182,0,0,1,.023.877,2.511,2.511,0,0,1-.124.713,1.31,1.31,0,0,1-.337.529,1.524,1.524,0,0,1-.617.335,1.589,1.589,0,0,1-.77.057,1.542,1.542,0,0,1-.639-.29,2.01,2.01,0,0,1-.495-.574,3.7,3.7,0,0,1-.346-.8,3.991,3.991,0,0,1-.178-1.328,3.665,3.665,0,0,1,.275-1.27l.724.162a2,2,0,0,0-.173.421,2.839,2.839,0,0,0-.1.547,3.592,3.592,0,0,0-.006.624,3.068,3.068,0,0,0,.125.659,1.847,1.847,0,0,0,.514.893.765.765,0,0,0,.762.141.757.757,0,0,0,.375-.236.966.966,0,0,0,.192-.409,2.565,2.565,0,0,0,.056-.59c0-.227-.009-.484-.025-.769a7.1,7.1,0,0,1-.008-.843,2.177,2.177,0,0,1,.123-.644,1.156,1.156,0,0,1,.311-.465,1.434,1.434,0,0,1,.551-.293,1.723,1.723,0,0,1,.779-.068,1.594,1.594,0,0,1,.668.267,1.988,1.988,0,0,1,.53.559,3.188,3.188,0,0,1,.363.8,3.129,3.129,0,0,1,.142,1.112,3.077,3.077,0,0,1-.224.983Z"/>
    <path id="Path_419" data-name="Path 419" d="M890.736,370.875l.125.635-5.446,3.582-.157-.8,1.6-1.042-.488-2.485-1.871-.351-.158-.8Zm-3.331,2.093,2.527-1.6-2.953-.562Z"/>
    <path id="Path_420" data-name="Path 420" d="M888.576,375.693a3.21,3.21,0,0,1,1.1.093,2.965,2.965,0,0,1,1.014.47,2.855,2.855,0,0,1,.773.839,2.729,2.729,0,0,1,.372,1.187,2.534,2.534,0,0,1-.238,1.413,2.286,2.286,0,0,1-.871.941l-.444-.566a1.758,1.758,0,0,0,.453-.369,1.735,1.735,0,0,0,.276-.444,1.816,1.816,0,0,0,.127-.476,2.321,2.321,0,0,0,.009-.47,1.848,1.848,0,0,0-.289-.866,2.039,2.039,0,0,0-.6-.6,2.353,2.353,0,0,0-.788-.325,2.783,2.783,0,0,0-.856-.054,2.575,2.575,0,0,0-.886.238,2.471,2.471,0,0,0-.719.505,2.12,2.12,0,0,0-.465.707,1.817,1.817,0,0,0-.118.848,2.064,2.064,0,0,0,.1.481,1.772,1.772,0,0,0,.233.461,2.024,2.024,0,0,0,.369.4,1.6,1.6,0,0,0,.509.283l-.29.666a1.877,1.877,0,0,1-.634-.347,2.564,2.564,0,0,1-.488-.545,3.048,3.048,0,0,1-.334-.665,2.882,2.882,0,0,1-.157-.7,2.385,2.385,0,0,1,.167-1.158,3.022,3.022,0,0,1,.626-.957,3.252,3.252,0,0,1,.937-.674A3.217,3.217,0,0,1,888.576,375.693Z"/>
    <path id="Path_421" data-name="Path 421" d="M891.981,387.821l-6.033-.122.016-.765,2.743.056.067-3.323-2.744-.057.016-.765,6.034.124-.016.765-2.608-.053L889.389,387l2.608.053Z"/>
    <path id="Path_422" data-name="Path 422" d="M885.913,394l-.674-.085.52-4.064,5.986.766-.512,3.988-.673-.086.412-3.229-1.938-.248-.359,2.808-.632-.081.358-2.807-2.065-.266Z"/>
    <path id="Path_423" data-name="Path 423" d="M889.161,401.075l.466-2.03-5.219-1.2.171-.745,5.22,1.2.465-2.03.663.153-1.1,4.8Z"/>
    <path id="Path_424" data-name="Path 424" d="M886.872,406.262a1.244,1.244,0,0,0,.3-.186,2.162,2.162,0,0,0,.31-.3,2.56,2.56,0,0,0,.286-.391,2.419,2.419,0,0,0,.219-.478,1.642,1.642,0,0,0,.08-1.063.876.876,0,0,0-.58-.541.807.807,0,0,0-.416-.042.78.78,0,0,0-.356.189,2.317,2.317,0,0,0-.348.408c-.116.17-.248.374-.394.613a8.041,8.041,0,0,1-.492.727,2.452,2.452,0,0,1-.516.506,1.3,1.3,0,0,1-.581.235,1.541,1.541,0,0,1-.7-.086,1.582,1.582,0,0,1-.658-.4,1.5,1.5,0,0,1-.352-.608,1.992,1.992,0,0,1-.069-.753,3.712,3.712,0,0,1,.184-.854,3.988,3.988,0,0,1,.627-1.183,3.715,3.715,0,0,1,.963-.874l.5.552a2.066,2.066,0,0,0-.387.243,2.771,2.771,0,0,0-.4.385,3.759,3.759,0,0,0-.367.5,3.04,3.04,0,0,0-.281.61,1.835,1.835,0,0,0-.1,1.023.762.762,0,0,0,.539.558.777.777,0,0,0,.443.029,1,1,0,0,0,.394-.222,2.579,2.579,0,0,0,.387-.449c.131-.185.274-.4.426-.641a7.363,7.363,0,0,1,.484-.688,2.179,2.179,0,0,1,.476-.454,1.163,1.163,0,0,1,.524-.2,1.416,1.416,0,0,1,.617.083,1.736,1.736,0,0,1,.675.4,1.637,1.637,0,0,1,.386.607,1.968,1.968,0,0,1,.108.762,3.356,3.356,0,0,1-.7,1.846,3.087,3.087,0,0,1-.754.669Z"/>
    <path id="Path_425" data-name="Path 425" d="M875.062,423.715a3.226,3.226,0,0,1,.688.857,3,3,0,0,1,.356,1.062,2.785,2.785,0,0,1-.077,1.137,2.707,2.707,0,0,1-.6,1.087,2.522,2.522,0,0,1-1.191.8,2.269,2.269,0,0,1-1.28.017l.105-.713a1.716,1.716,0,0,0,.58.075,1.659,1.659,0,0,0,.509-.105,1.778,1.778,0,0,0,.434-.236,2.209,2.209,0,0,0,.348-.317,1.862,1.862,0,0,0,.43-.8,2.023,2.023,0,0,0,.021-.848,2.327,2.327,0,0,0-.308-.8,2.775,2.775,0,0,0-.547-.658,2.574,2.574,0,0,0-.784-.479,2.513,2.513,0,0,0-.86-.175,2.152,2.152,0,0,0-.834.15,1.813,1.813,0,0,0-.7.5,2.081,2.081,0,0,0-.278.407,1.787,1.787,0,0,0-.174.485,2.066,2.066,0,0,0-.034.542,1.638,1.638,0,0,0,.144.564l-.682.248a1.887,1.887,0,0,1-.184-.7,2.55,2.55,0,0,1,.059-.728,2.92,2.92,0,0,1,.254-.7,2.848,2.848,0,0,1,.4-.6,2.423,2.423,0,0,1,.956-.676,3.068,3.068,0,0,1,1.125-.2,3.26,3.26,0,0,1,1.134.216A3.185,3.185,0,0,1,875.062,423.715Z"/>
    <path id="Path_426" data-name="Path 426" d="M866.349,428.36a2.579,2.579,0,0,1,1.033-.589,2.874,2.874,0,0,1,1.127-.094,3.1,3.1,0,0,1,1.087.337,3.264,3.264,0,0,1,.913.7,3.191,3.191,0,0,1,.832,2.127,2.879,2.879,0,0,1-.215,1.108,2.565,2.565,0,0,1-.671.949,2.459,2.459,0,0,1-1.035.582,3.011,3.011,0,0,1-1.132.081,3.189,3.189,0,0,1-1.089-.337,3.223,3.223,0,0,1-.9-.689,3.215,3.215,0,0,1-.832-2.123,2.822,2.822,0,0,1,.215-1.1A2.552,2.552,0,0,1,866.349,428.36Zm3.588.873a2.737,2.737,0,0,0-.708-.557,2.5,2.5,0,0,0-.824-.28,2.051,2.051,0,0,0-.839.051,1.842,1.842,0,0,0-.759.428,1.753,1.753,0,0,0-.5.738,2.116,2.116,0,0,0-.116.841,2.432,2.432,0,0,0,.21.835,2.739,2.739,0,0,0,.475.731,2.658,2.658,0,0,0,.707.556,2.391,2.391,0,0,0,.824.274,2.135,2.135,0,0,0,.835-.054,1.806,1.806,0,0,0,.753-.419,1.851,1.851,0,0,0,.5-.734,2.093,2.093,0,0,0,.119-.834,2.416,2.416,0,0,0-.2-.837A2.666,2.666,0,0,0,869.937,429.233Z"/>
    <path id="Path_427" data-name="Path 427" d="M864.944,435.6l-2.677-3.75.623-.445,3.506,4.913-.484.347L860.137,435l2.726,3.819-.622.445-3.5-4.906.525-.375Z"/>
    <path id="Path_428" data-name="Path 428" d="M859.707,440.84l-4.205-3.473.718,5.4-.706.392-.767-6.474.58-.321,5.087,4.082Z"/>
    <path id="Path_429" data-name="Path 429" d="M847.705,440.733l-.266-.626,3.77-1.6,2.364,5.553-3.7,1.574-.268-.626,3-1.274-.766-1.8-2.605,1.107-.249-.586,2.6-1.109-.815-1.916Z"/>
    <path id="Path_430" data-name="Path 430" d="M846.4,445.35l-1.329-4.412.731-.221,1.741,5.779-.569.171-4.937-3.421,1.354,4.492-.733.221-1.738-5.771.618-.186Z"/>
    <rect id="Rectangle_906" data-name="Rectangle 906" width="0.765" height="6.034" transform="translate(838.02 442.798) rotate(-11.843)"/>
    <path id="Path_431" data-name="Path 431" d="M831.909,444.436l-.091-.673,4.061-.544.8,5.982-3.984.533-.091-.675,3.227-.432-.259-1.938-2.806.377-.084-.633,2.8-.375-.275-2.065Z"/>
    <path id="Path_432" data-name="Path 432" d="M829.394,448.559l-.074-4.607.765-.011.1,6.033-.595.01-3.814-4.64.075,4.692-.764.012-.1-6.024.646-.011Z"/>
    <path id="Path_433" data-name="Path 433" d="M818.054,448.925l2.075.172.444-5.338.762.064-.443,5.337,2.075.172-.057.679L818,449.6Z"/>
    <path id="Path_434" data-name="Path 434" d="M809.761,446.738a1.259,1.259,0,0,0,.214.284,2.306,2.306,0,0,0,.327.281,2.68,2.68,0,0,0,.419.245,2.407,2.407,0,0,0,.5.171,1.649,1.649,0,0,0,1.066-.024.885.885,0,0,0,.482-.631.818.818,0,0,0,0-.418.783.783,0,0,0-.224-.335A2.313,2.313,0,0,0,812.1,446q-.273-.15-.649-.332a7.134,7.134,0,0,1-.77-.418,2.458,2.458,0,0,1-.557-.465,1.308,1.308,0,0,1-.29-.555,1.516,1.516,0,0,1,.018-.7,1.57,1.57,0,0,1,.335-.7,1.5,1.5,0,0,1,.57-.409,2,2,0,0,1,.744-.143,3.67,3.67,0,0,1,.866.1,3.981,3.981,0,0,1,1.238.509,3.62,3.62,0,0,1,.964.873l-.5.546a2,2,0,0,0-.278-.36,2.89,2.89,0,0,0-.422-.364,3.929,3.929,0,0,0-.538-.317,3.058,3.058,0,0,0-.634-.219,1.847,1.847,0,0,0-1.029,0,.846.846,0,0,0-.487,1.034.956.956,0,0,0,.258.37,2.608,2.608,0,0,0,.484.343c.2.113.425.233.68.362a7.6,7.6,0,0,1,.734.413,2.22,2.22,0,0,1,.5.43,1.148,1.148,0,0,1,.247.5,1.448,1.448,0,0,1-.022.623,1.712,1.712,0,0,1-.33.709,1.6,1.6,0,0,1-.564.445,1.994,1.994,0,0,1-.749.181,3.192,3.192,0,0,1-.87-.083,3.04,3.04,0,0,1-1.776-1.117Z"/>
    <path id="Path_435" data-name="Path 435" d="M805,446.622l-.611-.207L804,439.906l.772.264.1,1.9,2.4.818,1.238-1.446.772.263Zm-.15-3.932.129,2.992,1.961-2.278Z"/>
    <path id="Path_436" data-name="Path 436" d="M801.891,442.338a3.244,3.244,0,0,1-.629.9,3.037,3.037,0,0,1-.915.644,2.847,2.847,0,0,1-1.114.248,2.7,2.7,0,0,1-1.213-.272,2.526,2.526,0,0,1-1.1-.913,2.264,2.264,0,0,1-.379-1.223l.711-.1a1.768,1.768,0,0,0,.094.577,1.632,1.632,0,0,0,.247.461,1.714,1.714,0,0,0,.348.348,2.271,2.271,0,0,0,.4.243,1.847,1.847,0,0,0,.893.185,2.046,2.046,0,0,0,.819-.222,2.385,2.385,0,0,0,.677-.519,2.827,2.827,0,0,0,.474-.714,2.588,2.588,0,0,0,.237-.886,2.465,2.465,0,0,0-.078-.874,2.119,2.119,0,0,0-.38-.759,1.8,1.8,0,0,0-.673-.525,2.134,2.134,0,0,0-.469-.153,1.814,1.814,0,0,0-.516-.027,1.99,1.99,0,0,0-.529.12,1.582,1.582,0,0,0-.5.3l-.433-.585a1.893,1.893,0,0,1,.618-.373,2.556,2.556,0,0,1,.717-.152,2.988,2.988,0,0,1,.742.044,2.927,2.927,0,0,1,.688.215,2.411,2.411,0,0,1,.919.725,3.031,3.031,0,0,1,.515,1.022,3.222,3.222,0,0,1,.115,1.148A3.165,3.165,0,0,1,801.891,442.338Z"/>
    <path id="Path_437" data-name="Path 437" d="M789.686,439.209l3.134-5.158.653.4-1.424,2.346,2.839,1.727,1.426-2.347.654.4-3.134,5.157-.653-.4,1.354-2.229-2.841-1.727-1.354,2.231Z"/>
    <path id="Path_438" data-name="Path 438" d="M787.409,430.877l.413-.541,3.256,2.487-3.664,4.8-3.2-2.441.413-.54,2.586,1.976,1.188-1.553-2.248-1.719.387-.506,2.249,1.719,1.264-1.656Z"/>
    <path id="Path_439" data-name="Path 439" d="M779.652,430.137l1.523,1.419,3.65-3.918.561.521-3.65,3.917,1.522,1.421-.463.5-3.606-3.361Z"/>
    <path id="Path_440" data-name="Path 440" d="M776.295,425.555a1.2,1.2,0,0,0,.009.355,2.162,2.162,0,0,0,.1.418,2.7,2.7,0,0,0,.2.444,2.371,2.371,0,0,0,.3.429,1.632,1.632,0,0,0,.88.6.877.877,0,0,0,.758-.232.8.8,0,0,0,.244-.34.774.774,0,0,0,.014-.4,2.254,2.254,0,0,0-.179-.5c-.09-.186-.2-.4-.333-.647a7.622,7.622,0,0,1-.385-.788,2.528,2.528,0,0,1-.181-.7,1.322,1.322,0,0,1,.087-.621,1.535,1.535,0,0,1,.424-.56,1.571,1.571,0,0,1,.677-.37,1.479,1.479,0,0,1,.7,0,2.012,2.012,0,0,1,.689.316,3.682,3.682,0,0,1,.647.586,4.014,4.014,0,0,1,.711,1.135,3.68,3.68,0,0,1,.275,1.27l-.725.153a2.059,2.059,0,0,0-.017-.455,2.8,2.8,0,0,0-.132-.541,3.631,3.631,0,0,0-.252-.571,3.075,3.075,0,0,0-.388-.548,1.853,1.853,0,0,0-.835-.6.77.77,0,0,0-.753.187.76.76,0,0,0-.246.372.988.988,0,0,0-.005.451,2.64,2.64,0,0,0,.194.56c.1.2.21.437.342.689a7.546,7.546,0,0,1,.357.764,2.255,2.255,0,0,1,.154.639,1.15,1.15,0,0,1-.091.551,1.432,1.432,0,0,1-.381.494,1.716,1.716,0,0,1-.68.385,1.6,1.6,0,0,1-.718.033,1.983,1.983,0,0,1-.714-.288,3.117,3.117,0,0,1-1.453-2.516Z"/>
  </g>
</svg>
