<svg xmlns="http://www.w3.org/2000/svg" width="132.13" height="130.691" viewBox="0 0 132.13 130.691">
  <g id="napis_wygodne_saszetki_en" data-name="napis wygodne saszetki en" transform="translate(-759.896 -319.393)">
    <path id="Path_351" data-name="Path 351" d="M772.994,418.323a3.186,3.186,0,0,1-1.029.386,3.014,3.014,0,0,1-1.12.011,2.823,2.823,0,0,1-1.057-.427,2.732,2.732,0,0,1-.846-.912,2.555,2.555,0,0,1-.39-1.38,2.28,2.28,0,0,1,.383-1.224l.643.323a1.719,1.719,0,0,0-.25.527,1.637,1.637,0,0,0-.058.519,1.856,1.856,0,0,0,.088.486,2.217,2.217,0,0,0,.2.427,1.846,1.846,0,0,0,.631.659,2.073,2.073,0,0,0,.8.284,2.389,2.389,0,0,0,.853-.045,2.862,2.862,0,0,0,.795-.317,2.656,2.656,0,0,0,.7-.6,2.51,2.51,0,0,0,.432-.764,2.144,2.144,0,0,0,.117-.839,1.819,1.819,0,0,0-.256-.817,2.132,2.132,0,0,0-.3-.391,1.812,1.812,0,0,0-.409-.315,2.033,2.033,0,0,0-.505-.2,1.608,1.608,0,0,0-.579-.037l-.024-.728a1.962,1.962,0,0,1,.721.043,2.593,2.593,0,0,1,.675.283,3.012,3.012,0,0,1,.587.458,2.855,2.855,0,0,1,.443.567,2.4,2.4,0,0,1,.346,1.119,3.036,3.036,0,0,1-.154,1.134,3.295,3.295,0,0,1-1.43,1.767Z"/>
    <path id="Path_352" data-name="Path 352" d="M771.014,407.982a2.573,2.573,0,0,1,.225,1.167,2.894,2.894,0,0,1-.273,1.1,3.162,3.162,0,0,1-.671.921,3.275,3.275,0,0,1-.954.638,3.083,3.083,0,0,1-1.149.261,3.186,3.186,0,0,1-1.134-.159,2.846,2.846,0,0,1-.98-.56,2.6,2.6,0,0,1-.683-.941,2.489,2.489,0,0,1-.215-1.168,2.919,2.919,0,0,1,.287-1.1,3.2,3.2,0,0,1,3.889-1.66,2.89,2.89,0,0,1,.976.559A2.589,2.589,0,0,1,771.014,407.982Zm-1.983,3.115a2.694,2.694,0,0,0,.755-.492,2.4,2.4,0,0,0,.53-.689,2.015,2.015,0,0,0,.222-.809,1.811,1.811,0,0,0-.159-.859,1.789,1.789,0,0,0-.537-.712,2.137,2.137,0,0,0-.758-.379,2.441,2.441,0,0,0-.86-.071,2.753,2.753,0,0,0-.843.214,2.691,2.691,0,0,0-.755.491,2.351,2.351,0,0,0-.525.69,2.15,2.15,0,0,0-.218.81,1.774,1.774,0,0,0,.155.846,1.813,1.813,0,0,0,.532.714,2.1,2.1,0,0,0,.75.382,2.457,2.457,0,0,0,.859.077A2.688,2.688,0,0,0,769.031,411.1Z"/>
    <path id="Path_353" data-name="Path 353" d="M764.405,403.66l4.428-1.276.211.735-5.8,1.672-.165-.571,3.479-4.9-4.508,1.3-.212-.735,5.79-1.67.18.621Z"/>
    <path id="Path_354" data-name="Path 354" d="M761.058,396.257l4.7-2.769-5.324-1.169-.126-.8,6.346,1.489.105.653-5.574,3.39Z"/>
    <path id="Path_355" data-name="Path 355" d="M765.242,384.315l.68-.029.177,4.092-6.028.262-.175-4.017.68-.029.141,3.252,1.953-.084-.122-2.828.637-.028.123,2.828,2.08-.09Z"/>
    <path id="Path_356" data-name="Path 356" d="M761.41,380.772l4.593.355-.06.763-6.017-.466.047-.594,4.975-3.365-4.678-.363.059-.762,6.009.465-.049.645Z"/>
    <rect id="Rectangle_902" data-name="Rectangle 902" width="0.765" height="6.035" transform="translate(760.856 372.954) rotate(-80.024)"/>
    <path id="Path_357" data-name="Path 357" d="M767.881,366.3l.658.175-1.052,3.959-5.832-1.548,1.03-3.887.657.175-.835,3.147,1.89.5.726-2.735.617.164-.728,2.736,2.014.534Z"/>
    <path id="Path_358" data-name="Path 358" d="M765.285,361.76l4.279,1.707-.284.711-5.6-2.236.221-.552,5.751-1.732-4.357-1.738.283-.711,5.6,2.233-.24.6Z"/>
    <path id="Path_359" data-name="Path 359" d="M769.781,350.542l-1,1.829,4.7,2.565-.366.671-4.7-2.565-1,1.828-.6-.326,2.361-4.328Z"/>
    <path id="Path_360" data-name="Path 360" d="M776.042,342.711a1.274,1.274,0,0,0-.35.073,2.622,2.622,0,0,0-.392.177,2.792,2.792,0,0,0-.4.277,2.389,2.389,0,0,0-.366.378,1.635,1.635,0,0,0-.429.975.869.869,0,0,0,.368.7.812.812,0,0,0,.379.179.776.776,0,0,0,.4-.061,2.181,2.181,0,0,0,.465-.268q.25-.182.575-.446a7.441,7.441,0,0,1,.705-.521,2.471,2.471,0,0,1,.656-.307,1.338,1.338,0,0,1,.627-.029,1.547,1.547,0,0,1,.628.315,1.581,1.581,0,0,1,.488.6,1.514,1.514,0,0,1,.129.689,2.01,2.01,0,0,1-.187.735,3.659,3.659,0,0,1-.456.743,4.059,4.059,0,0,1-.986.906,3.718,3.718,0,0,1-1.2.5l-.284-.686a2,2,0,0,0,.445-.1,2.839,2.839,0,0,0,.508-.228,3.569,3.569,0,0,0,.514-.353,2.982,2.982,0,0,0,.47-.481,1.851,1.851,0,0,0,.436-.931.763.763,0,0,0-.322-.706.774.774,0,0,0-.408-.174.964.964,0,0,0-.445.08,2.544,2.544,0,0,0-.515.292q-.279.2-.616.462a7.363,7.363,0,0,1-.685.489,2.194,2.194,0,0,1-.6.269,1.136,1.136,0,0,1-.558.011,1.443,1.443,0,0,1-.556-.284,1.734,1.734,0,0,1-.5-.6,1.621,1.621,0,0,1-.164-.7,1.959,1.959,0,0,1,.154-.754,3.347,3.347,0,0,1,1.272-1.509,3.142,3.142,0,0,1,.934-.38Z"/>
    <path id="Path_361" data-name="Path 361" d="M778.663,337.921l.453-.461,6.032,2.469-.571.582-1.761-.729-1.774,1.808.767,1.743-.572.581Zm3.608,1.566-2.75-1.176,1.2,2.753Z"/>
    <path id="Path_362" data-name="Path 362" d="M784.393,336.508a3.242,3.242,0,0,1-.533-.964,3.047,3.047,0,0,1-.172-1.106,2.827,2.827,0,0,1,.27-1.107,2.734,2.734,0,0,1,.78-.97,2.544,2.544,0,0,1,1.308-.585,2.269,2.269,0,0,1,1.266.2l-.224.682a1.767,1.767,0,0,0-.559-.17,1.674,1.674,0,0,0-.521.016,1.84,1.84,0,0,0-.469.159,2.193,2.193,0,0,0-.394.253,1.84,1.84,0,0,0-.56.721,2.026,2.026,0,0,0-.165.832,2.326,2.326,0,0,0,.168.836,2.732,2.732,0,0,0,.428.741,2.6,2.6,0,0,0,.691.607,2.526,2.526,0,0,0,.819.316,2.132,2.132,0,0,0,.846-.007,1.791,1.791,0,0,0,.772-.371,2.087,2.087,0,0,0,.342-.353,1.774,1.774,0,0,0,.253-.45,1.98,1.98,0,0,0,.126-.527,1.6,1.6,0,0,0-.047-.579l.716-.13a1.866,1.866,0,0,1,.062.72,2.584,2.584,0,0,1-.182.708,2.986,2.986,0,0,1-.368.647,2.87,2.87,0,0,1-.5.521,2.406,2.406,0,0,1-1.058.505,3.052,3.052,0,0,1-1.143.011,3.241,3.241,0,0,1-1.081-.406A3.2,3.2,0,0,1,784.393,336.508Z"/>
    <path id="Path_363" data-name="Path 363" d="M793.217,326.594l3.181,5.129-.648.4-1.447-2.333-2.825,1.751,1.446,2.333-.648.4-3.181-5.129.648-.4,1.376,2.218,2.825-1.751L792.567,327Z"/>
    <path id="Path_364" data-name="Path 364" d="M802.326,328.062l.288.618-3.714,1.729-2.549-5.47,3.644-1.7.288.616-2.951,1.375.825,1.771,2.566-1.195.269.578-2.565,1.2.88,1.888Z"/>
    <path id="Path_365" data-name="Path 365" d="M807.276,321.328,805.3,322l1.719,5.072-.726.245-1.717-5.072-1.974.668-.218-.644,4.67-1.582Z"/>
    <path id="Path_366" data-name="Path 366" d="M813.592,320.4a1.327,1.327,0,0,0-.318-.165,2.314,2.314,0,0,0-.416-.111,2.646,2.646,0,0,0-.483-.042,2.419,2.419,0,0,0-.522.06,1.644,1.644,0,0,0-.952.481.881.881,0,0,0-.162.776.809.809,0,0,0,.179.378.778.778,0,0,0,.347.206,2.159,2.159,0,0,0,.529.087c.206.012.448.02.727.021a7.183,7.183,0,0,1,.877.046,2.448,2.448,0,0,1,.7.178,1.293,1.293,0,0,1,.5.377,1.526,1.526,0,0,1,.287.641,1.579,1.579,0,0,1,0,.771,1.522,1.522,0,0,1-.339.616,2.009,2.009,0,0,1-.609.449,3.8,3.8,0,0,1-.826.284,3.963,3.963,0,0,1-1.337.074,3.666,3.666,0,0,1-1.246-.372l.218-.71a1.989,1.989,0,0,0,.406.206,2.811,2.811,0,0,0,.538.146,3.745,3.745,0,0,0,.621.054,3.03,3.03,0,0,0,.667-.074,1.839,1.839,0,0,0,.928-.442.759.759,0,0,0,.2-.749.768.768,0,0,0-.205-.395.975.975,0,0,0-.392-.221,2.573,2.573,0,0,0-.585-.1c-.227-.017-.484-.028-.769-.034a7.279,7.279,0,0,1-.841-.057,2.174,2.174,0,0,1-.633-.173,1.138,1.138,0,0,1-.439-.345,1.45,1.45,0,0,1-.249-.573,1.735,1.735,0,0,1-.008-.781,1.6,1.6,0,0,1,.318-.646,1.949,1.949,0,0,1,.6-.485,3.119,3.119,0,0,1,.823-.3,3.087,3.087,0,0,1,1.118-.058,3.122,3.122,0,0,1,.963.3Z"/>
    <path id="Path_367" data-name="Path 367" d="M839.443,322.327a3.212,3.212,0,0,1,.46-1,3.035,3.035,0,0,1,.788-.794,2.792,2.792,0,0,1,1.052-.44,2.705,2.705,0,0,1,1.242.053,2.545,2.545,0,0,1,1.248.7,2.281,2.281,0,0,1,.588,1.14l-.682.224a1.749,1.749,0,0,0-.2-.551,1.646,1.646,0,0,0-.322-.41,1.761,1.761,0,0,0-.405-.281,2.131,2.131,0,0,0-.439-.169,1.856,1.856,0,0,0-.913-.024,2.036,2.036,0,0,0-.766.362,2.333,2.333,0,0,0-.575.631,2.765,2.765,0,0,0-.341.785,2.6,2.6,0,0,0-.079.916,2.52,2.52,0,0,0,.231.846,2.149,2.149,0,0,0,.508.678,1.789,1.789,0,0,0,.757.4,2.168,2.168,0,0,0,.487.067,1.772,1.772,0,0,0,.514-.064,2.013,2.013,0,0,0,.5-.211,1.637,1.637,0,0,0,.438-.382l.527.5a1.847,1.847,0,0,1-.542.477,2.529,2.529,0,0,1-.678.275,3,3,0,0,1-.74.088,2.835,2.835,0,0,1-.713-.092,2.4,2.4,0,0,1-1.033-.552,3.057,3.057,0,0,1-.687-.913,3.3,3.3,0,0,1-.229-2.261Z"/>
    <path id="Path_368" data-name="Path 368" d="M848.123,328.276a2.577,2.577,0,0,1-.982-.671,2.839,2.839,0,0,1-.577-.971,3.062,3.062,0,0,1-.173-1.126,3.235,3.235,0,0,1,.228-1.126,3.153,3.153,0,0,1,.63-.994,3.185,3.185,0,0,1,.918-.685,2.878,2.878,0,0,1,1.092-.293,2.589,2.589,0,0,1,1.146.187,2.466,2.466,0,0,1,.974.677,2.95,2.95,0,0,1,.57.981,3.262,3.262,0,0,1-.051,2.241,3.127,3.127,0,0,1-.629.994,3.166,3.166,0,0,1-.913.682,2.845,2.845,0,0,1-1.085.291A2.6,2.6,0,0,1,848.123,328.276Zm-.785-3.608a2.744,2.744,0,0,0-.191.881,2.414,2.414,0,0,0,.11.862,2.023,2.023,0,0,0,.411.732,1.859,1.859,0,0,0,.718.5,1.81,1.81,0,0,0,.883.127,2.1,2.1,0,0,0,.806-.265,2.42,2.42,0,0,0,.66-.555,2.7,2.7,0,0,0,.638-1.626,2.318,2.318,0,0,0-.114-.86,2.126,2.126,0,0,0-.415-.728,1.786,1.786,0,0,0-.7-.491,1.824,1.824,0,0,0-.881-.133,2.132,2.132,0,0,0-.8.258,2.417,2.417,0,0,0-.662.55A2.671,2.671,0,0,0,847.338,324.668Z"/>
    <path id="Path_369" data-name="Path 369" d="M855.862,326.69l-2.244,4.024-.668-.372,2.938-5.272.52.29.979,5.927,2.284-4.1.668.373-2.935,5.264-.564-.315Z"/>
    <path id="Path_370" data-name="Path 370" d="M863.456,329.594l-1.391,5.272,4.6-2.915.652.478-5.558,3.408-.535-.393,1.576-6.329Z"/>
    <path id="Path_371" data-name="Path 371" d="M868.891,341.028l-.462.5-3.008-2.784,4.1-4.429,2.951,2.731-.462.5-2.389-2.211-1.328,1.435,2.076,1.922-.433.468-2.076-1.923-1.416,1.529Z"/>
    <path id="Path_372" data-name="Path 372" d="M874.114,340.854l-3.512,2.981-.5-.583,4.6-3.907.387.455-1.163,5.893,3.576-3.036.494.583-4.594,3.9-.418-.493Z"/>
    <rect id="Rectangle_903" data-name="Rectangle 903" width="6.034" height="0.765" transform="translate(875.055 349.454) rotate(-34.792)"/>
    <path id="Path_373" data-name="Path 373" d="M879.7,355.67l-.59.34-2.043-3.552,5.231-3.007,2.006,3.484-.59.339-1.622-2.822-1.7.974,1.411,2.455-.553.317-1.411-2.453-1.8,1.037Z"/>
    <path id="Path_374" data-name="Path 374" d="M884.738,357.062l-4.24,1.8-.3-.7,5.555-2.356.233.548-2.866,5.279,4.318-1.832.3.7-5.548,2.354-.252-.595Z"/>
    <path id="Path_375" data-name="Path 375" d="M889.445,368.215l-.578-2-5.146,1.484-.211-.734,5.146-1.484-.578-2,.654-.189,1.365,4.738Z"/>
    <path id="Path_376" data-name="Path 376" d="M890.512,378.169a1.191,1.191,0,0,0,.2-.3,2.469,2.469,0,0,0,.153-.4,2.568,2.568,0,0,0,.089-.477,2.321,2.321,0,0,0-.006-.526,1.626,1.626,0,0,0-.383-1,.875.875,0,0,0-.755-.24.8.8,0,0,0-.394.14.771.771,0,0,0-.241.324,2.245,2.245,0,0,0-.14.517q-.048.3-.094.722a7.246,7.246,0,0,1-.134.867,2.5,2.5,0,0,1-.248.68,1.311,1.311,0,0,1-.426.46,1.532,1.532,0,0,1-.668.22,1.572,1.572,0,0,1-.767-.081,1.512,1.512,0,0,1-.578-.4,2.007,2.007,0,0,1-.384-.653,3.608,3.608,0,0,1-.2-.849,3.962,3.962,0,0,1,.061-1.339,3.644,3.644,0,0,1,.5-1.2l.683.287a1.957,1.957,0,0,0-.244.384,2.885,2.885,0,0,0-.2.52,3.5,3.5,0,0,0-.115.613,2.9,2.9,0,0,0,.006.671,1.867,1.867,0,0,0,.344.97.848.848,0,0,0,1.139.109,1,1,0,0,0,.261-.367,2.669,2.669,0,0,0,.159-.572c.039-.224.077-.479.112-.762a7,7,0,0,1,.142-.83,2.2,2.2,0,0,1,.235-.613,1.157,1.157,0,0,1,.39-.4,1.416,1.416,0,0,1,.594-.189,1.712,1.712,0,0,1,.779.071,1.617,1.617,0,0,1,.609.381,1.974,1.974,0,0,1,.422.644,3.121,3.121,0,0,1-.237,2.895Z"/>
    <path id="Path_377" data-name="Path 377" d="M892.023,383.4l0,.646L886,386.542l-.005-.815,1.766-.722-.013-2.534-1.773-.7,0-.815Zm-3.665,1.429,2.784-1.1-2.794-1.108Z"/>
    <path id="Path_378" data-name="Path 378" d="M888.948,388.452a3.238,3.238,0,0,1,1.056.311,3,3,0,0,1,.9.665,2.845,2.845,0,0,1,.588.977,2.7,2.7,0,0,1,.126,1.237,2.533,2.533,0,0,1-.516,1.337,2.3,2.3,0,0,1-1.042.747l-.322-.644a1.757,1.757,0,0,0,.519-.271,1.7,1.7,0,0,0,.357-.379,1.849,1.849,0,0,0,.222-.442,2.227,2.227,0,0,0,.1-.459,1.846,1.846,0,0,0-.108-.9,2.034,2.034,0,0,0-.469-.707,2.394,2.394,0,0,0-.708-.478,2.8,2.8,0,0,0-.826-.224,2.6,2.6,0,0,0-.916.055,2.539,2.539,0,0,0-.806.351,2.146,2.146,0,0,0-.6.6,1.814,1.814,0,0,0-.286.807,2.029,2.029,0,0,0,.005.492,1.726,1.726,0,0,0,.137.5,2.006,2.006,0,0,0,.281.462,1.615,1.615,0,0,0,.441.379l-.418.6a1.862,1.862,0,0,1-.55-.468,2.538,2.538,0,0,1-.37-.632,2.979,2.979,0,0,1-.193-.717,2.859,2.859,0,0,1-.013-.72,2.4,2.4,0,0,1,.4-1.1,3.015,3.015,0,0,1,.8-.811,3.3,3.3,0,0,1,2.2-.554Z"/>
    <path id="Path_379" data-name="Path 379" d="M889.651,401.707l-5.868-1.408.178-.743,2.671.641.774-3.232-2.669-.64.177-.744,5.869,1.406-.178.743-2.538-.606-.774,3.231,2.536.607Z"/>
    <path id="Path_380" data-name="Path 380" d="M882.146,407.081l-.639-.236,1.42-3.844,5.661,2.092-1.394,3.771-.638-.235,1.128-3.054-1.833-.677-.981,2.655-.6-.221.98-2.656-1.953-.721Z"/>
    <path id="Path_381" data-name="Path 381" d="M883.388,415.327l.929-1.864-4.793-2.389.342-.685,4.792,2.388.929-1.864.608.3-2.2,4.412Z"/>
    <path id="Path_382" data-name="Path 382" d="M879.555,420.431a1.324,1.324,0,0,0,.341-.105,2.34,2.34,0,0,0,.375-.215,2.663,2.663,0,0,0,.371-.311,2.35,2.35,0,0,0,.329-.41,1.643,1.643,0,0,0,.337-1.011.88.88,0,0,0-.431-.665.814.814,0,0,0-.4-.142.743.743,0,0,0-.39.1,2.19,2.19,0,0,0-.437.309q-.233.2-.532.5a7.551,7.551,0,0,1-.654.585,2.515,2.515,0,0,1-.623.367,1.342,1.342,0,0,1-.623.086,1.54,1.54,0,0,1-.653-.255,1.569,1.569,0,0,1-.542-.55,1.515,1.515,0,0,1-.193-.675,2,2,0,0,1,.116-.747,3.671,3.671,0,0,1,.388-.782,3.972,3.972,0,0,1,.9-1,3.662,3.662,0,0,1,1.147-.613l.345.657a1.962,1.962,0,0,0-.433.14,2.718,2.718,0,0,0-.484.276,3.557,3.557,0,0,0-.481.4,3,3,0,0,0-.421.522,1.844,1.844,0,0,0-.348.968.845.845,0,0,0,.808.807.965.965,0,0,0,.436-.119,2.654,2.654,0,0,0,.486-.339q.26-.222.569-.519a7.362,7.362,0,0,1,.638-.549,2.2,2.2,0,0,1,.571-.325,1.157,1.157,0,0,1,.556-.063,1.433,1.433,0,0,1,.58.231,1.754,1.754,0,0,1,.556.548,1.613,1.613,0,0,1,.228.684,1.942,1.942,0,0,1-.083.764,3.333,3.333,0,0,1-1.126,1.621,3.05,3.05,0,0,1-.9.465Z"/>
    <path id="Path_383" data-name="Path 383" d="M859.83,437.283a3.176,3.176,0,0,1,.376,1.034,2.971,2.971,0,0,1,0,1.12,2.805,2.805,0,0,1-.436,1.053,2.725,2.725,0,0,1-.919.837,2.548,2.548,0,0,1-1.383.378,2.276,2.276,0,0,1-1.22-.393l.327-.642a1.753,1.753,0,0,0,.526.257,1.693,1.693,0,0,0,.518.062,1.769,1.769,0,0,0,.485-.086,2.143,2.143,0,0,0,.43-.188,1.829,1.829,0,0,0,.665-.626,2.055,2.055,0,0,0,.291-.8,2.388,2.388,0,0,0-.038-.853,2.8,2.8,0,0,0-.309-.8,2.607,2.607,0,0,0-.59-.7,2.489,2.489,0,0,0-.761-.44,2.118,2.118,0,0,0-.837-.124,1.819,1.819,0,0,0-.819.248,2.094,2.094,0,0,0-.394.3,1.834,1.834,0,0,0-.319.4,2.06,2.06,0,0,0-.205.5,1.642,1.642,0,0,0-.043.581l-.726.018a1.877,1.877,0,0,1,.049-.721,2.582,2.582,0,0,1,.288-.674,2.94,2.94,0,0,1,.464-.582,2.863,2.863,0,0,1,.57-.438,2.41,2.41,0,0,1,1.121-.336,3.056,3.056,0,0,1,1.133.165,3.266,3.266,0,0,1,1.005.566A3.2,3.2,0,0,1,859.83,437.283Z"/>
    <path id="Path_384" data-name="Path 384" d="M849.486,439.164a2.59,2.59,0,0,1,1.17-.214,2.848,2.848,0,0,1,1.094.283,3.131,3.131,0,0,1,.915.677,3.263,3.263,0,0,1,.631.962,3.188,3.188,0,0,1,.082,2.283,2.907,2.907,0,0,1-.568.976,2.591,2.591,0,0,1-.948.674,2.48,2.48,0,0,1-1.168.205,2.957,2.957,0,0,1-1.095-.3,3.242,3.242,0,0,1-1.541-1.628,3.1,3.1,0,0,1-.252-1.148,3.169,3.169,0,0,1,.168-1.129,2.854,2.854,0,0,1,.565-.97A2.577,2.577,0,0,1,849.486,439.164Zm3.1,2.011a2.69,2.69,0,0,0-.485-.76,2.456,2.456,0,0,0-.684-.536,2.04,2.04,0,0,0-.809-.229,1.827,1.827,0,0,0-.858.152,1.771,1.771,0,0,0-.717.531,2.1,2.1,0,0,0-.385.755,2.39,2.39,0,0,0-.08.859,2.755,2.755,0,0,0,.207.845,2.7,2.7,0,0,0,.485.76,2.376,2.376,0,0,0,.685.53,2.18,2.18,0,0,0,.808.226,1.814,1.814,0,0,0,.848-.148,1.836,1.836,0,0,0,.717-.526,2.113,2.113,0,0,0,.389-.747,2.427,2.427,0,0,0,.084-.858A2.65,2.65,0,0,0,852.584,441.175Z"/>
    <path id="Path_385" data-name="Path 385" d="M845.094,445.741l-1.238-4.439.737-.205,1.622,5.814-.574.158-4.866-3.521,1.262,4.52-.737.205-1.619-5.806.622-.173Z"/>
    <path id="Path_386" data-name="Path 386" d="M837.667,449.022l-2.729-4.723-1.215,5.313-.8.12,1.543-6.334.656-.1,3.34,5.6Z"/>
    <path id="Path_387" data-name="Path 387" d="M825.772,444.734l-.023-.68,4.094-.142.21,6.032-4.019.139-.023-.68,3.254-.112-.068-1.954-2.828.1-.022-.637,2.829-.1-.072-2.081Z"/>
    <path id="Path_388" data-name="Path 388" d="M822.181,448.537l.4-4.591.763.066-.521,6.013-.592-.052-3.322-5.007-.4,4.675-.764-.064.521-6,.644.057Z"/>
    <rect id="Rectangle_904" data-name="Rectangle 904" width="6.035" height="0.765" transform="translate(813.586 448.878) rotate(-79.475)"/>
    <path id="Path_389" data-name="Path 389" d="M807.756,441.932l.181-.656,3.95,1.088-1.6,5.818-3.876-1.066.18-.656,3.14.863.519-1.885-2.729-.75.169-.616,2.729.752.554-2.008Z"/>
    <path id="Path_390" data-name="Path 390" d="M803.214,444.5l1.745-4.265.708.289-2.285,5.588-.55-.227-1.684-5.767-1.775,4.343-.708-.289,2.281-5.578.6.244Z"/>
    <path id="Path_391" data-name="Path 391" d="M792.017,439.891l1.819,1.014,2.607-4.678.668.373-2.607,4.677,1.819,1.015-.332.594-4.3-2.4Z"/>
  </g>
</svg>
